<?xml version='1.0' encoding='UTF-8'?>
<svg xmlns="http://www.w3.org/2000/svg" width="1453" height="397" viewBox="0 0 1453 397"><g transform="translate(0.000000,397.000000) scale(0.100000,-0.100000)" fill="#ffffff" stroke="none">
<path d="M5511 3959 c-580 -61 -1069 -349 -1375 -809 -168 -252 -281 -585 -317 -929 -15 -143 -6 -456 16 -601 76 -486 283 -870 635 -1178 272 -238 592 -377 975 -423 129 -15 432 -15 560 0 323 39 617 147 861 316 144 99 339 299 436 445 291 438 405 1015 313 1590 -116 723 -555 1270 -1201 1493 -261 91 -603 127 -903 96z m384 -954 c33 -8 98 -34 145 -56 115 -56 246 -186 307 -304 96 -186 126 -338 127 -650 1 -299 -32 -473 -124 -660 -77 -157 -169 -253 -305 -320 -93 -46 -170 -65 -285 -72 -315 -17 -575 177 -707 529 -44 116 -61 200 -74 374 -23 288 21 557 125 769 106 215 226 323 426 382 93 27 273 31 365 8z" />
<path d="M12545 3959 c-344 -37 -675 -158 -924 -336 -407 -292 -672 -785 -732 -1361 -17 -161 -6 -534 19 -677 71 -396 211 -699 459 -989 450 -526 1294 -732 2043 -500 394 123 698 369 908 735 119 207 194 456 204 679 l3 65 -570 3 -571 2 -18 -72 c-10 -40 -34 -113 -53 -163 -113 -285 -294 -408 -578 -391 -192 12 -303 55 -411 161 -135 133 -241 384 -274 649 -17 134 -7 420 19 546 37 182 104 353 180 463 48 70 142 152 211 184 107 51 180 67 320 67 193 0 287 -31 393 -132 92 -88 161 -220 190 -364 l12 -58 568 -3 569 -2 -7 55 c-12 103 -57 304 -91 408 -188 574 -621 915 -1294 1017 -128 19 -452 27 -575 14z" />
<path d="M6 3858 c-3 -13 -6 -868 -6 -1900 l0 -1878 813 0 c853 0 1084 7 1309 40 640 94 1084 392 1313 883 127 274 179 557 179 982 0 276 -13 389 -74 630 -92 363 -230 624 -440 836 -187 190 -392 299 -680 363 -265 59 -266 59 -1381 63 l-1026 4 -7 -23z m1780 -973 c309 -54 532 -250 623 -549 50 -163 48 -476 -4 -683 -84 -333 -307 -540 -628 -583 -43 -5 -200 -10 -348 -10 l-269 0 0 920 0 919 93 4 c155 7 445 -3 533 -18z" />
<path d="M8691 3843 c-10 -21 -48 -119 -84 -218 -36 -99 -307 -837 -602 -1640 -616 -1676 -695 -1891 -695 -1899 0 -3 263 -6 584 -6 l585 0 16 58 c9 31 46 153 83 270 l66 212 603 0 602 0 31 -97 c17 -54 52 -174 78 -268 l47 -170 608 -3 c334 -1 607 -1 607 1 0 2 -15 41 -34 88 -19 46 -72 192 -119 324 -47 132 -302 832 -565 1555 -264 723 -514 1410 -556 1525 -42 116 -84 230 -94 255 l-18 45 -562 3 -562 2 -19 -37z m622 -1348 c56 -172 297 -1017 297 -1041 0 -6 -137 -10 -356 -10 -323 -1 -355 0 -349 15 6 15 118 375 281 903 43 141 82 254 85 250 4 -4 23 -56 42 -117z" />
</g>
</svg>