<?xml version='1.0' encoding='UTF-8'?>
<svg xmlns="http://www.w3.org/2000/svg" width="1999" height="1545" viewBox="0 0 1999 1545"><g transform="translate(0.000000,1545.000000) scale(0.100000,-0.100000)" fill="#ffffff" stroke="none">
<path d="M0 7725 l0 -7725 9995 0 9995 0 0 7725 0 7725 -9995 0 -9995 0 0 -7725z m17660 95 l0 -5730 -7815 0 -7815 0 0 5730 0 5730 7815 0 7815 0 0 -5730z" />
</g>
<g transform="translate(0.000000,1545.000000) scale(0.100000,-0.100000)" fill="#000000" stroke="none">
<path d="M0 7725 l0 -7725 9995 0 9995 0 0 7725 0 7725 -9995 0 -9995 0 0 -7725z m19130 365 l0 -6380 -1370 0 -1370 0 0 -485 0 -485 -7765 0 -7765 0 0 6865 0 6865 9135 0 9135 0 0 -6380z m-1497 -6560 c78 -24 140 -78 177 -155 22 -44 25 -63 25 -160 0 -100 -2 -115 -27 -161 -35 -66 -106 -128 -170 -150 -70 -23 -207 -16 -264 14 -122 63 -194 224 -164 368 42 205 220 307 423 244z m1168 4 c96 -27 165 -103 183 -201 l6 -33 -94 0 -94 0 -12 30 c-36 88 -157 78 -196 -16 -21 -50 -18 -157 5 -203 27 -52 45 -64 96 -64 52 0 79 19 95 69 l12 34 95 0 96 0 -7 -41 c-12 -77 -69 -155 -140 -191 -49 -26 -180 -36 -242 -19 -86 23 -166 100 -200 192 -23 61 -23 190 -1 256 54 156 224 236 398 187z m-1816 -15 c59 -15 118 -68 151 -136 36 -73 45 -201 20 -287 -21 -72 -77 -135 -149 -167 -47 -21 -69 -24 -244 -27 l-193 -4 0 316 0 316 186 0 c102 0 205 -5 229 -11z m1316 -239 c49 -135 100 -276 114 -313 l25 -68 -102 3 -101 3 -11 40 -12 40 -101 3 -101 3 -14 -43 -15 -43 -98 -3 c-90 -3 -97 -1 -91 15 4 10 28 74 52 143 25 69 70 193 101 275 31 83 60 160 64 173 8 22 13 23 105 20 l96 -3 89 -245z" />
<path d="M1900 7820 l0 -5860 7943 2 7942 3 3 5835 c1 3209 0 5845 -3 5858 l-5 22 -7940 0 -7940 0 0 -5860z m15760 0 l0 -5730 -7815 0 -7815 0 0 5730 0 5730 7815 0 7815 0 0 -5730z" />
<path d="M17456 1369 c-85 -67 -72 -270 20 -314 79 -37 157 17 169 119 12 97 -13 174 -65 201 -41 21 -92 19 -124 -6z" />
<path d="M16760 1215 l0 -155 50 0 c99 0 152 45 166 138 5 33 2 57 -12 90 -24 58 -67 82 -146 82 l-58 0 0 -155z" />
<path d="M18092 1250 c-13 -41 -27 -85 -32 -97 -9 -22 -8 -23 50 -23 l60 0 -6 28 c-4 15 -17 59 -29 97 l-21 70 -22 -75z" />
</g>
</svg>