<?xml version='1.0' encoding='UTF-8'?>
<svg xmlns="http://www.w3.org/2000/svg" width="1999" height="1545" viewBox="0 0 1999 1545"><g transform="translate(0.000000,1545.000000) scale(0.100000,-0.100000)" fill="#ffffff" stroke="none">
<path d="M0 7725 l0 -7725 9995 0 9995 0 0 7725 0 7725 -9995 0 -9995 0 0 -7725z m19010 -5 l0 -6660 -9010 0 -9010 0 0 6660 0 6660 9010 0 9010 0 0 -6660z" />
</g>
<g transform="translate(0.000000,1545.000000) scale(0.100000,-0.100000)" fill="#000000" stroke="none">
<path d="M0 7725 l0 -7725 9995 0 9995 0 0 7725 0 7725 -9995 0 -9995 0 0 -7725z m19010 -5 l0 -6660 -9010 0 -9010 0 0 6660 0 6660 9010 0 9010 0 0 -6660z m-867 -6874 c67 -32 120 -89 155 -165 36 -76 37 -216 3 -303 -27 -69 -88 -135 -156 -168 -73 -35 -208 -40 -287 -10 -73 27 -141 92 -176 168 -24 50 -27 69 -27 162 0 123 16 169 86 245 72 79 146 106 270 101 59 -2 90 -9 132 -30z m1242 5 c28 -12 64 -36 82 -53 34 -33 69 -105 75 -153 l3 -30 -98 -3 -97 -3 -11 28 c-20 53 -48 73 -102 73 -40 0 -53 -5 -77 -28 -68 -69 -67 -236 2 -309 17 -18 32 -23 73 -23 57 0 84 20 102 75 l10 30 103 3 103 3 -7 -43 c-16 -101 -99 -197 -195 -225 -75 -21 -201 -14 -262 15 -134 65 -210 232 -180 397 25 134 98 219 226 262 60 19 189 12 250 -16z m-1973 -2 c71 -16 122 -59 160 -137 32 -64 33 -71 33 -187 0 -138 -15 -185 -80 -248 -70 -68 -122 -80 -352 -85 l-203 -4 0 336 0 335 143 3 c167 3 235 0 299 -13z m1316 -16 c6 -16 60 -165 121 -332 61 -167 111 -305 111 -307 0 -3 -48 -3 -107 -2 l-107 3 -14 48 -13 48 -107 -3 -106 -3 -15 -47 -15 -48 -103 0 c-57 0 -103 2 -103 4 0 2 49 136 109 297 59 162 114 311 120 332 l13 37 103 0 103 0 10 -27z" />
<path d="M17904 675 c-43 -46 -60 -122 -44 -200 20 -96 90 -150 164 -125 65 21 96 81 96 184 -1 115 -49 176 -141 176 -35 0 -47 -6 -75 -35z" />
<path d="M17180 525 l0 -165 53 0 c112 1 169 57 171 170 1 104 -57 160 -166 160 l-58 0 0 -165z" />
<path d="M18595 573 c-10 -32 -24 -77 -31 -100 l-13 -43 64 0 64 0 -26 93 c-13 50 -28 95 -32 100 -4 4 -16 -19 -26 -50z" />
</g>
</svg>