<?xml version='1.0' encoding='UTF-8'?>
<svg xmlns="http://www.w3.org/2000/svg" width="1999" height="1545" viewBox="0 0 1999 1545"><g transform="translate(0.000000,1545.000000) scale(0.100000,-0.100000)" fill="#ffffff" stroke="none">
<path d="M0 7725 l0 -7725 9995 0 9995 0 0 7725 0 7725 -9995 0 -9995 0 0 -7725z m19010 -5 l0 -6660 -9010 0 -9010 0 0 6660 0 6660 9010 0 9010 0 0 -6660z" />
</g>
<g transform="translate(0.000000,1545.000000) scale(0.100000,-0.100000)" fill="#000000" stroke="none">
<path d="M0 7725 l0 -7725 9995 0 9995 0 0 7725 0 7725 -9995 0 -9995 0 0 -7725z m19010 -5 l0 -6660 -9010 0 -9010 0 0 6660 0 6660 9010 0 9010 0 0 -6660z m-867 -6874 c67 -32 120 -89 155 -165 36 -76 37 -216 3 -303 -27 -69 -88 -135 -156 -168 -73 -35 -208 -40 -287 -10 -73 27 -141 92 -176 168 -24 50 -27 69 -27 162 0 123 16 169 86 245 72 79 146 106 270 101 59 -2 90 -9 132 -30z m1242 5 c28 -12 64 -36 82 -53 34 -33 69 -105 75 -153 l3 -30 -98 -3 -97 -3 -11 28 c-20 53 -48 73 -102 73 -40 0 -53 -5 -77 -28 -68 -69 -67 -236 2 -309 17 -18 32 -23 73 -23 57 0 84 20 102 75 l10 30 103 3 103 3 -7 -43 c-16 -101 -99 -197 -195 -225 -75 -21 -201 -14 -262 15 -134 65 -210 232 -180 397 25 134 98 219 226 262 60 19 189 12 250 -16z m-1973 -2 c71 -16 122 -59 160 -137 32 -64 33 -71 33 -187 0 -138 -15 -185 -80 -248 -70 -68 -122 -80 -352 -85 l-203 -4 0 336 0 335 143 3 c167 3 235 0 299 -13z m1316 -16 c6 -16 60 -165 121 -332 61 -167 111 -305 111 -307 0 -3 -48 -3 -107 -2 l-107 3 -14 48 -13 48 -107 -3 -106 -3 -15 -47 -15 -48 -103 0 c-57 0 -103 2 -103 4 0 2 49 136 109 297 59 162 114 311 120 332 l13 37 103 0 103 0 10 -27z" />
<path d="M17904 675 c-43 -46 -60 -122 -44 -200 20 -96 90 -150 164 -125 65 21 96 81 96 184 -1 115 -49 176 -141 176 -35 0 -47 -6 -75 -35z" />
<path d="M17180 525 l0 -165 53 0 c112 1 169 57 171 170 1 104 -57 160 -166 160 l-58 0 0 -165z" />
<path d="M18595 573 c-10 -32 -24 -77 -31 -100 l-13 -43 64 0 64 0 -26 93 c-13 50 -28 95 -32 100 -4 4 -16 -19 -26 -50z" />
</g>
<rect x="1691.00" y="1451.00" width="269.50" height="81.50" fill="#000000" /><g transform="translate(1698.567,1457.000) scale(0.175063,0.175063)"><g transform="translate(0.000000,397.000000) scale(0.100000,-0.100000)" fill="#ffffff" stroke="none">
<path d="M5511 3959 c-580 -61 -1069 -349 -1375 -809 -168 -252 -281 -585 -317 -929 -15 -143 -6 -456 16 -601 76 -486 283 -870 635 -1178 272 -238 592 -377 975 -423 129 -15 432 -15 560 0 323 39 617 147 861 316 144 99 339 299 436 445 291 438 405 1015 313 1590 -116 723 -555 1270 -1201 1493 -261 91 -603 127 -903 96z m384 -954 c33 -8 98 -34 145 -56 115 -56 246 -186 307 -304 96 -186 126 -338 127 -650 1 -299 -32 -473 -124 -660 -77 -157 -169 -253 -305 -320 -93 -46 -170 -65 -285 -72 -315 -17 -575 177 -707 529 -44 116 -61 200 -74 374 -23 288 21 557 125 769 106 215 226 323 426 382 93 27 273 31 365 8z" />
<path d="M12545 3959 c-344 -37 -675 -158 -924 -336 -407 -292 -672 -785 -732 -1361 -17 -161 -6 -534 19 -677 71 -396 211 -699 459 -989 450 -526 1294 -732 2043 -500 394 123 698 369 908 735 119 207 194 456 204 679 l3 65 -570 3 -571 2 -18 -72 c-10 -40 -34 -113 -53 -163 -113 -285 -294 -408 -578 -391 -192 12 -303 55 -411 161 -135 133 -241 384 -274 649 -17 134 -7 420 19 546 37 182 104 353 180 463 48 70 142 152 211 184 107 51 180 67 320 67 193 0 287 -31 393 -132 92 -88 161 -220 190 -364 l12 -58 568 -3 569 -2 -7 55 c-12 103 -57 304 -91 408 -188 574 -621 915 -1294 1017 -128 19 -452 27 -575 14z" />
<path d="M6 3858 c-3 -13 -6 -868 -6 -1900 l0 -1878 813 0 c853 0 1084 7 1309 40 640 94 1084 392 1313 883 127 274 179 557 179 982 0 276 -13 389 -74 630 -92 363 -230 624 -440 836 -187 190 -392 299 -680 363 -265 59 -266 59 -1381 63 l-1026 4 -7 -23z m1780 -973 c309 -54 532 -250 623 -549 50 -163 48 -476 -4 -683 -84 -333 -307 -540 -628 -583 -43 -5 -200 -10 -348 -10 l-269 0 0 920 0 919 93 4 c155 7 445 -3 533 -18z" />
<path d="M8691 3843 c-10 -21 -48 -119 -84 -218 -36 -99 -307 -837 -602 -1640 -616 -1676 -695 -1891 -695 -1899 0 -3 263 -6 584 -6 l585 0 16 58 c9 31 46 153 83 270 l66 212 603 0 602 0 31 -97 c17 -54 52 -174 78 -268 l47 -170 608 -3 c334 -1 607 -1 607 1 0 2 -15 41 -34 88 -19 46 -72 192 -119 324 -47 132 -302 832 -565 1555 -264 723 -514 1410 -556 1525 -42 116 -84 230 -94 255 l-18 45 -562 3 -562 2 -19 -37z m622 -1348 c56 -172 297 -1017 297 -1041 0 -6 -137 -10 -356 -10 -323 -1 -355 0 -349 15 6 15 118 375 281 903 43 141 82 254 85 250 4 -4 23 -56 42 -117z" />
</g></g></svg>