<?xml version='1.0' encoding='UTF-8'?>
<svg xmlns="http://www.w3.org/2000/svg" width="1999" height="1545" viewBox="0 0 1999 1545"><g transform="translate(0.000000,1545.000000) scale(0.100000,-0.100000)" fill="#ffffff" stroke="none">
<path d="M0 7725 l0 -7725 9995 0 9995 0 0 7725 0 7725 -9995 0 -9995 0 0 -7725z m17660 95 l0 -5730 -7815 0 -7815 0 0 5730 0 5730 7815 0 7815 0 0 -5730z" />
</g>
<g transform="translate(0.000000,1545.000000) scale(0.100000,-0.100000)" fill="#000000" stroke="none">
<path d="M0 7725 l0 -7725 9995 0 9995 0 0 7725 0 7725 -9995 0 -9995 0 0 -7725z m19130 365 l0 -6380 -1370 0 -1370 0 0 -485 0 -485 -7765 0 -7765 0 0 6865 0 6865 9135 0 9135 0 0 -6380z m-1497 -6560 c78 -24 140 -78 177 -155 22 -44 25 -63 25 -160 0 -100 -2 -115 -27 -161 -35 -66 -106 -128 -170 -150 -70 -23 -207 -16 -264 14 -122 63 -194 224 -164 368 42 205 220 307 423 244z m1168 4 c96 -27 165 -103 183 -201 l6 -33 -94 0 -94 0 -12 30 c-36 88 -157 78 -196 -16 -21 -50 -18 -157 5 -203 27 -52 45 -64 96 -64 52 0 79 19 95 69 l12 34 95 0 96 0 -7 -41 c-12 -77 -69 -155 -140 -191 -49 -26 -180 -36 -242 -19 -86 23 -166 100 -200 192 -23 61 -23 190 -1 256 54 156 224 236 398 187z m-1816 -15 c59 -15 118 -68 151 -136 36 -73 45 -201 20 -287 -21 -72 -77 -135 -149 -167 -47 -21 -69 -24 -244 -27 l-193 -4 0 316 0 316 186 0 c102 0 205 -5 229 -11z m1316 -239 c49 -135 100 -276 114 -313 l25 -68 -102 3 -101 3 -11 40 -12 40 -101 3 -101 3 -14 -43 -15 -43 -98 -3 c-90 -3 -97 -1 -91 15 4 10 28 74 52 143 25 69 70 193 101 275 31 83 60 160 64 173 8 22 13 23 105 20 l96 -3 89 -245z" />
<path d="M1900 7820 l0 -5860 7943 2 7942 3 3 5835 c1 3209 0 5845 -3 5858 l-5 22 -7940 0 -7940 0 0 -5860z m15760 0 l0 -5730 -7815 0 -7815 0 0 5730 0 5730 7815 0 7815 0 0 -5730z" />
<path d="M17456 1369 c-85 -67 -72 -270 20 -314 79 -37 157 17 169 119 12 97 -13 174 -65 201 -41 21 -92 19 -124 -6z" />
<path d="M16760 1215 l0 -155 50 0 c99 0 152 45 166 138 5 33 2 57 -12 90 -24 58 -67 82 -146 82 l-58 0 0 -155z" />
<path d="M18092 1250 c-13 -41 -27 -85 -32 -97 -9 -22 -8 -23 50 -23 l60 0 -6 28 c-4 15 -17 59 -29 97 l-21 70 -22 -75z" />
</g>
<rect x="1651.00" y="1384.00" width="254.00" height="77.50" fill="#000000" /><g transform="translate(1658.137,1390.000) scale(0.164987,0.164987)"><g transform="translate(0.000000,397.000000) scale(0.100000,-0.100000)" fill="#ffffff" stroke="none">
<path d="M5511 3959 c-580 -61 -1069 -349 -1375 -809 -168 -252 -281 -585 -317 -929 -15 -143 -6 -456 16 -601 76 -486 283 -870 635 -1178 272 -238 592 -377 975 -423 129 -15 432 -15 560 0 323 39 617 147 861 316 144 99 339 299 436 445 291 438 405 1015 313 1590 -116 723 -555 1270 -1201 1493 -261 91 -603 127 -903 96z m384 -954 c33 -8 98 -34 145 -56 115 -56 246 -186 307 -304 96 -186 126 -338 127 -650 1 -299 -32 -473 -124 -660 -77 -157 -169 -253 -305 -320 -93 -46 -170 -65 -285 -72 -315 -17 -575 177 -707 529 -44 116 -61 200 -74 374 -23 288 21 557 125 769 106 215 226 323 426 382 93 27 273 31 365 8z" />
<path d="M12545 3959 c-344 -37 -675 -158 -924 -336 -407 -292 -672 -785 -732 -1361 -17 -161 -6 -534 19 -677 71 -396 211 -699 459 -989 450 -526 1294 -732 2043 -500 394 123 698 369 908 735 119 207 194 456 204 679 l3 65 -570 3 -571 2 -18 -72 c-10 -40 -34 -113 -53 -163 -113 -285 -294 -408 -578 -391 -192 12 -303 55 -411 161 -135 133 -241 384 -274 649 -17 134 -7 420 19 546 37 182 104 353 180 463 48 70 142 152 211 184 107 51 180 67 320 67 193 0 287 -31 393 -132 92 -88 161 -220 190 -364 l12 -58 568 -3 569 -2 -7 55 c-12 103 -57 304 -91 408 -188 574 -621 915 -1294 1017 -128 19 -452 27 -575 14z" />
<path d="M6 3858 c-3 -13 -6 -868 -6 -1900 l0 -1878 813 0 c853 0 1084 7 1309 40 640 94 1084 392 1313 883 127 274 179 557 179 982 0 276 -13 389 -74 630 -92 363 -230 624 -440 836 -187 190 -392 299 -680 363 -265 59 -266 59 -1381 63 l-1026 4 -7 -23z m1780 -973 c309 -54 532 -250 623 -549 50 -163 48 -476 -4 -683 -84 -333 -307 -540 -628 -583 -43 -5 -200 -10 -348 -10 l-269 0 0 920 0 919 93 4 c155 7 445 -3 533 -18z" />
<path d="M8691 3843 c-10 -21 -48 -119 -84 -218 -36 -99 -307 -837 -602 -1640 -616 -1676 -695 -1891 -695 -1899 0 -3 263 -6 584 -6 l585 0 16 58 c9 31 46 153 83 270 l66 212 603 0 602 0 31 -97 c17 -54 52 -174 78 -268 l47 -170 608 -3 c334 -1 607 -1 607 1 0 2 -15 41 -34 88 -19 46 -72 192 -119 324 -47 132 -302 832 -565 1555 -264 723 -514 1410 -556 1525 -42 116 -84 230 -94 255 l-18 45 -562 3 -562 2 -19 -37z m622 -1348 c56 -172 297 -1017 297 -1041 0 -6 -137 -10 -356 -10 -323 -1 -355 0 -349 15 6 15 118 375 281 903 43 141 82 254 85 250 4 -4 23 -56 42 -117z" />
</g></g></svg>